<mxfile host="app.diagrams.net" modified="2023-04-12T17:50:07.234Z" agent="Mozilla/5.0 (Windows NT 10.0; Win64; x64) AppleWebKit/537.36 (KHTML, like Gecko) Chrome/111.0.0.0 Safari/537.36" etag="DaOpdgNcMUfXX2xRr7yh" version="21.1.5" type="device">
  <diagram name="Page-1" id="-20kRBNL79YeYZ_aD53V">
    <mxGraphModel dx="1647" dy="868" grid="0" gridSize="10" guides="1" tooltips="1" connect="1" arrows="1" fold="1" page="1" pageScale="1" pageWidth="1400" pageHeight="850" math="0" shadow="0">
      <root>
        <mxCell id="0" />
        <mxCell id="1" parent="0" />
        <mxCell id="lOgc0Rc7WmqNJs67cUO1-1" value="VPC Ohio (Primary)" style="points=[[0,0],[0.25,0],[0.5,0],[0.75,0],[1,0],[1,0.25],[1,0.5],[1,0.75],[1,1],[0.75,1],[0.5,1],[0.25,1],[0,1],[0,0.75],[0,0.5],[0,0.25]];outlineConnect=0;gradientColor=none;html=1;whiteSpace=wrap;fontSize=12;fontStyle=0;container=1;pointerEvents=0;collapsible=0;recursiveResize=0;shape=mxgraph.aws4.group;grIcon=mxgraph.aws4.group_vpc;strokeColor=#248814;fillColor=none;verticalAlign=top;align=left;spacingLeft=30;fontColor=#AAB7B8;dashed=0;" vertex="1" parent="1">
          <mxGeometry x="40" y="127" width="310" height="400" as="geometry" />
        </mxCell>
        <mxCell id="lOgc0Rc7WmqNJs67cUO1-2" value="AZ1" style="sketch=0;outlineConnect=0;gradientColor=none;html=1;whiteSpace=wrap;fontSize=12;fontStyle=0;shape=mxgraph.aws4.group;grIcon=mxgraph.aws4.group_availability_zone;strokeColor=#545B64;fillColor=none;verticalAlign=top;align=left;spacingLeft=30;fontColor=#545B64;dashed=1;" vertex="1" parent="lOgc0Rc7WmqNJs67cUO1-1">
          <mxGeometry x="10" y="40" width="90" height="240" as="geometry" />
        </mxCell>
        <mxCell id="lOgc0Rc7WmqNJs67cUO1-3" value="Private subnet-a" style="points=[[0,0],[0.25,0],[0.5,0],[0.75,0],[1,0],[1,0.25],[1,0.5],[1,0.75],[1,1],[0.75,1],[0.5,1],[0.25,1],[0,1],[0,0.75],[0,0.5],[0,0.25]];outlineConnect=0;gradientColor=none;html=1;whiteSpace=wrap;fontSize=12;fontStyle=0;container=1;pointerEvents=0;collapsible=0;recursiveResize=0;shape=mxgraph.aws4.group;grIcon=mxgraph.aws4.group_security_group;grStroke=0;strokeColor=#147EBA;fillColor=#E6F2F8;verticalAlign=top;align=left;spacingLeft=30;fontColor=#147EBA;dashed=0;" vertex="1" parent="lOgc0Rc7WmqNJs67cUO1-1">
          <mxGeometry x="15" y="80" width="80" height="90" as="geometry" />
        </mxCell>
        <mxCell id="lOgc0Rc7WmqNJs67cUO1-54" value="k8s Service" style="sketch=0;html=1;dashed=0;whitespace=wrap;fillColor=#dae8fc;strokeColor=#6c8ebf;points=[[0.005,0.63,0],[0.1,0.2,0],[0.9,0.2,0],[0.5,0,0],[0.995,0.63,0],[0.72,0.99,0],[0.5,1,0],[0.28,0.99,0]];verticalLabelPosition=bottom;align=center;verticalAlign=top;shape=mxgraph.kubernetes.icon;prIcon=svc" vertex="1" parent="lOgc0Rc7WmqNJs67cUO1-1">
          <mxGeometry x="29" y="321.5" width="40" height="37" as="geometry" />
        </mxCell>
        <mxCell id="lOgc0Rc7WmqNJs67cUO1-41" value="EKS Ingress &lt;br&gt;Controller ALB" style="outlineConnect=0;dashed=0;verticalLabelPosition=bottom;verticalAlign=top;align=left;html=1;shape=mxgraph.aws3.application_load_balancer;fillColor=#dae8fc;strokeColor=#6c8ebf;" vertex="1" parent="lOgc0Rc7WmqNJs67cUO1-1">
          <mxGeometry x="229" y="317.5" width="40" height="40" as="geometry" />
        </mxCell>
        <mxCell id="lOgc0Rc7WmqNJs67cUO1-58" value="" style="endArrow=classic;html=1;rounded=0;exitX=0;exitY=0.5;exitDx=0;exitDy=0;exitPerimeter=0;entryX=0.995;entryY=0.413;entryDx=0;entryDy=0;entryPerimeter=0;fillColor=#dae8fc;strokeColor=#6c8ebf;" edge="1" parent="lOgc0Rc7WmqNJs67cUO1-1" source="lOgc0Rc7WmqNJs67cUO1-41" target="lOgc0Rc7WmqNJs67cUO1-54">
          <mxGeometry width="50" height="50" relative="1" as="geometry">
            <mxPoint x="630" y="430" as="sourcePoint" />
            <mxPoint x="680" y="380" as="targetPoint" />
          </mxGeometry>
        </mxCell>
        <mxCell id="lOgc0Rc7WmqNJs67cUO1-59" value="&lt;font color=&quot;#009900&quot;&gt;liveness probe&amp;nbsp;&lt;br&gt;reporting ok on&amp;nbsp;&lt;br&gt;/health&lt;/font&gt;" style="endArrow=classic;html=1;rounded=0;exitX=0.5;exitY=0;exitDx=0;exitDy=0;exitPerimeter=0;fillColor=#dae8fc;strokeColor=#6c8ebf;align=left;" edge="1" parent="lOgc0Rc7WmqNJs67cUO1-1" source="lOgc0Rc7WmqNJs67cUO1-54" target="lOgc0Rc7WmqNJs67cUO1-2">
          <mxGeometry x="-0.3732" y="-41" width="50" height="50" relative="1" as="geometry">
            <mxPoint x="630" y="430" as="sourcePoint" />
            <mxPoint x="680" y="380" as="targetPoint" />
            <mxPoint as="offset" />
          </mxGeometry>
        </mxCell>
        <mxCell id="lOgc0Rc7WmqNJs67cUO1-4" value="AZ2" style="sketch=0;outlineConnect=0;gradientColor=none;html=1;whiteSpace=wrap;fontSize=12;fontStyle=0;shape=mxgraph.aws4.group;grIcon=mxgraph.aws4.group_availability_zone;strokeColor=#545B64;fillColor=none;verticalAlign=top;align=left;spacingLeft=30;fontColor=#545B64;dashed=1;" vertex="1" parent="1">
          <mxGeometry x="149" y="167" width="90" height="240" as="geometry" />
        </mxCell>
        <mxCell id="lOgc0Rc7WmqNJs67cUO1-5" value="Private subnet-b" style="points=[[0,0],[0.25,0],[0.5,0],[0.75,0],[1,0],[1,0.25],[1,0.5],[1,0.75],[1,1],[0.75,1],[0.5,1],[0.25,1],[0,1],[0,0.75],[0,0.5],[0,0.25]];outlineConnect=0;gradientColor=none;html=1;whiteSpace=wrap;fontSize=12;fontStyle=0;container=1;pointerEvents=0;collapsible=0;recursiveResize=0;shape=mxgraph.aws4.group;grIcon=mxgraph.aws4.group_security_group;grStroke=0;strokeColor=#147EBA;fillColor=#E6F2F8;verticalAlign=top;align=left;spacingLeft=30;fontColor=#147EBA;dashed=0;" vertex="1" parent="1">
          <mxGeometry x="154" y="207" width="80" height="90" as="geometry" />
        </mxCell>
        <mxCell id="lOgc0Rc7WmqNJs67cUO1-6" value="AZn" style="sketch=0;outlineConnect=0;gradientColor=none;html=1;whiteSpace=wrap;fontSize=12;fontStyle=0;shape=mxgraph.aws4.group;grIcon=mxgraph.aws4.group_availability_zone;strokeColor=#545B64;fillColor=none;verticalAlign=top;align=left;spacingLeft=30;fontColor=#545B64;dashed=1;" vertex="1" parent="1">
          <mxGeometry x="247" y="167" width="90" height="240" as="geometry" />
        </mxCell>
        <mxCell id="lOgc0Rc7WmqNJs67cUO1-7" value="Private subnet-c" style="points=[[0,0],[0.25,0],[0.5,0],[0.75,0],[1,0],[1,0.25],[1,0.5],[1,0.75],[1,1],[0.75,1],[0.5,1],[0.25,1],[0,1],[0,0.75],[0,0.5],[0,0.25]];outlineConnect=0;gradientColor=none;html=1;whiteSpace=wrap;fontSize=12;fontStyle=0;container=1;pointerEvents=0;collapsible=0;recursiveResize=0;shape=mxgraph.aws4.group;grIcon=mxgraph.aws4.group_security_group;grStroke=0;strokeColor=#147EBA;fillColor=#E6F2F8;verticalAlign=top;align=left;spacingLeft=30;fontColor=#147EBA;dashed=0;" vertex="1" parent="1">
          <mxGeometry x="252" y="207" width="80" height="90" as="geometry" />
        </mxCell>
        <mxCell id="lOgc0Rc7WmqNJs67cUO1-8" value="RDS Primary Cluster" style="rounded=0;whiteSpace=wrap;html=1;fillColor=none;align=right;verticalAlign=top;" vertex="1" parent="1">
          <mxGeometry x="58" y="242" width="270" height="51" as="geometry" />
        </mxCell>
        <mxCell id="lOgc0Rc7WmqNJs67cUO1-9" value="Primary" style="sketch=0;outlineConnect=0;gradientColor=#7ea6e0;fillColor=#dae8fc;strokeColor=#6c8ebf;dashed=0;verticalLabelPosition=bottom;verticalAlign=top;align=left;html=1;fontSize=12;fontStyle=0;aspect=fixed;pointerEvents=1;shape=mxgraph.aws4.aurora_instance;" vertex="1" parent="1">
          <mxGeometry x="87" y="251.5" width="19" height="19" as="geometry" />
        </mxCell>
        <mxCell id="lOgc0Rc7WmqNJs67cUO1-10" value="" style="sketch=0;points=[[0,0,0],[0.25,0,0],[0.5,0,0],[0.75,0,0],[1,0,0],[0,1,0],[0.25,1,0],[0.5,1,0],[0.75,1,0],[1,1,0],[0,0.25,0],[0,0.5,0],[0,0.75,0],[1,0.25,0],[1,0.5,0],[1,0.75,0]];outlineConnect=0;gradientColor=#7ea6e0;gradientDirection=north;fillColor=#dae8fc;strokeColor=#6c8ebf;dashed=0;verticalLabelPosition=bottom;verticalAlign=top;align=left;html=1;fontSize=12;fontStyle=0;aspect=fixed;shape=mxgraph.aws4.resourceIcon;resIcon=mxgraph.aws4.aurora;" vertex="1" parent="1">
          <mxGeometry x="58" y="242" width="20" height="20" as="geometry" />
        </mxCell>
        <mxCell id="lOgc0Rc7WmqNJs67cUO1-11" value="Replica" style="sketch=0;outlineConnect=0;gradientColor=#7ea6e0;fillColor=#dae8fc;strokeColor=#6c8ebf;dashed=0;verticalLabelPosition=bottom;verticalAlign=top;align=left;html=1;fontSize=12;fontStyle=0;aspect=fixed;pointerEvents=1;shape=mxgraph.aws4.aurora_instance;" vertex="1" parent="1">
          <mxGeometry x="177" y="253.5" width="19" height="19" as="geometry" />
        </mxCell>
        <mxCell id="lOgc0Rc7WmqNJs67cUO1-12" value="VPC Oregon (Secondary)" style="points=[[0,0],[0.25,0],[0.5,0],[0.75,0],[1,0],[1,0.25],[1,0.5],[1,0.75],[1,1],[0.75,1],[0.5,1],[0.25,1],[0,1],[0,0.75],[0,0.5],[0,0.25]];outlineConnect=0;gradientColor=none;html=1;whiteSpace=wrap;fontSize=12;fontStyle=0;container=1;pointerEvents=0;collapsible=0;recursiveResize=0;shape=mxgraph.aws4.group;grIcon=mxgraph.aws4.group_vpc;strokeColor=#248814;fillColor=none;verticalAlign=top;align=left;spacingLeft=30;fontColor=#AAB7B8;dashed=0;" vertex="1" parent="1">
          <mxGeometry x="450" y="127" width="310" height="400" as="geometry" />
        </mxCell>
        <mxCell id="lOgc0Rc7WmqNJs67cUO1-13" value="AZ1" style="sketch=0;outlineConnect=0;gradientColor=none;html=1;whiteSpace=wrap;fontSize=12;fontStyle=0;shape=mxgraph.aws4.group;grIcon=mxgraph.aws4.group_availability_zone;strokeColor=#545B64;fillColor=none;verticalAlign=top;align=left;spacingLeft=30;fontColor=#545B64;dashed=1;" vertex="1" parent="lOgc0Rc7WmqNJs67cUO1-12">
          <mxGeometry x="10" y="40" width="90" height="240" as="geometry" />
        </mxCell>
        <mxCell id="lOgc0Rc7WmqNJs67cUO1-14" value="Private subnet-a" style="points=[[0,0],[0.25,0],[0.5,0],[0.75,0],[1,0],[1,0.25],[1,0.5],[1,0.75],[1,1],[0.75,1],[0.5,1],[0.25,1],[0,1],[0,0.75],[0,0.5],[0,0.25]];outlineConnect=0;gradientColor=none;html=1;whiteSpace=wrap;fontSize=12;fontStyle=0;container=1;pointerEvents=0;collapsible=0;recursiveResize=0;shape=mxgraph.aws4.group;grIcon=mxgraph.aws4.group_security_group;grStroke=0;strokeColor=#147EBA;fillColor=#E6F2F8;verticalAlign=top;align=left;spacingLeft=30;fontColor=#147EBA;dashed=0;" vertex="1" parent="lOgc0Rc7WmqNJs67cUO1-12">
          <mxGeometry x="15" y="80" width="80" height="90" as="geometry" />
        </mxCell>
        <mxCell id="lOgc0Rc7WmqNJs67cUO1-40" value="EKS Ingress &lt;br&gt;Controller ALB" style="outlineConnect=0;dashed=0;verticalLabelPosition=bottom;verticalAlign=top;align=left;html=1;shape=mxgraph.aws3.application_load_balancer;fillColor=#dae8fc;strokeColor=#6c8ebf;" vertex="1" parent="lOgc0Rc7WmqNJs67cUO1-12">
          <mxGeometry x="15" y="320" width="43" height="38" as="geometry" />
        </mxCell>
        <mxCell id="lOgc0Rc7WmqNJs67cUO1-53" value="k8s Service" style="sketch=0;html=1;dashed=0;whitespace=wrap;fillColor=#dae8fc;strokeColor=#6c8ebf;points=[[0.005,0.63,0],[0.1,0.2,0],[0.9,0.2,0],[0.5,0,0],[0.995,0.63,0],[0.72,0.99,0],[0.5,1,0],[0.28,0.99,0]];verticalLabelPosition=bottom;align=center;verticalAlign=top;shape=mxgraph.kubernetes.icon;prIcon=svc" vertex="1" parent="lOgc0Rc7WmqNJs67cUO1-12">
          <mxGeometry x="156" y="322" width="40" height="37" as="geometry" />
        </mxCell>
        <mxCell id="lOgc0Rc7WmqNJs67cUO1-57" value="" style="endArrow=classic;html=1;rounded=0;exitX=1;exitY=0.5;exitDx=0;exitDy=0;exitPerimeter=0;fillColor=#dae8fc;strokeColor=#6c8ebf;" edge="1" parent="lOgc0Rc7WmqNJs67cUO1-12" source="lOgc0Rc7WmqNJs67cUO1-40">
          <mxGeometry width="50" height="50" relative="1" as="geometry">
            <mxPoint x="220" y="430" as="sourcePoint" />
            <mxPoint x="160" y="339" as="targetPoint" />
          </mxGeometry>
        </mxCell>
        <mxCell id="lOgc0Rc7WmqNJs67cUO1-15" value="AZ2" style="sketch=0;outlineConnect=0;gradientColor=none;html=1;whiteSpace=wrap;fontSize=12;fontStyle=0;shape=mxgraph.aws4.group;grIcon=mxgraph.aws4.group_availability_zone;strokeColor=#545B64;fillColor=none;verticalAlign=top;align=left;spacingLeft=30;fontColor=#545B64;dashed=1;" vertex="1" parent="1">
          <mxGeometry x="559" y="167" width="90" height="240" as="geometry" />
        </mxCell>
        <mxCell id="lOgc0Rc7WmqNJs67cUO1-16" value="Private subnet-b" style="points=[[0,0],[0.25,0],[0.5,0],[0.75,0],[1,0],[1,0.25],[1,0.5],[1,0.75],[1,1],[0.75,1],[0.5,1],[0.25,1],[0,1],[0,0.75],[0,0.5],[0,0.25]];outlineConnect=0;gradientColor=none;html=1;whiteSpace=wrap;fontSize=12;fontStyle=0;container=1;pointerEvents=0;collapsible=0;recursiveResize=0;shape=mxgraph.aws4.group;grIcon=mxgraph.aws4.group_security_group;grStroke=0;strokeColor=#147EBA;fillColor=#E6F2F8;verticalAlign=top;align=left;spacingLeft=30;fontColor=#147EBA;dashed=0;" vertex="1" parent="1">
          <mxGeometry x="564" y="207" width="80" height="90" as="geometry" />
        </mxCell>
        <mxCell id="lOgc0Rc7WmqNJs67cUO1-17" value="AZn" style="sketch=0;outlineConnect=0;gradientColor=none;html=1;whiteSpace=wrap;fontSize=12;fontStyle=0;shape=mxgraph.aws4.group;grIcon=mxgraph.aws4.group_availability_zone;strokeColor=#545B64;fillColor=none;verticalAlign=top;align=left;spacingLeft=30;fontColor=#545B64;dashed=1;" vertex="1" parent="1">
          <mxGeometry x="657" y="167" width="90" height="240" as="geometry" />
        </mxCell>
        <mxCell id="lOgc0Rc7WmqNJs67cUO1-18" value="Private subnet-c" style="points=[[0,0],[0.25,0],[0.5,0],[0.75,0],[1,0],[1,0.25],[1,0.5],[1,0.75],[1,1],[0.75,1],[0.5,1],[0.25,1],[0,1],[0,0.75],[0,0.5],[0,0.25]];outlineConnect=0;gradientColor=none;html=1;whiteSpace=wrap;fontSize=12;fontStyle=0;container=1;pointerEvents=0;collapsible=0;recursiveResize=0;shape=mxgraph.aws4.group;grIcon=mxgraph.aws4.group_security_group;grStroke=0;strokeColor=#147EBA;fillColor=#E6F2F8;verticalAlign=top;align=left;spacingLeft=30;fontColor=#147EBA;dashed=0;" vertex="1" parent="1">
          <mxGeometry x="662" y="207" width="80" height="90" as="geometry" />
        </mxCell>
        <mxCell id="lOgc0Rc7WmqNJs67cUO1-19" value="RDS Secondary Cluster" style="rounded=0;whiteSpace=wrap;html=1;fillColor=none;align=right;verticalAlign=top;" vertex="1" parent="1">
          <mxGeometry x="468" y="242" width="270" height="51" as="geometry" />
        </mxCell>
        <mxCell id="lOgc0Rc7WmqNJs67cUO1-20" value="Replica" style="sketch=0;outlineConnect=0;gradientColor=#7ea6e0;fillColor=#dae8fc;strokeColor=#6c8ebf;dashed=0;verticalLabelPosition=bottom;verticalAlign=top;align=left;html=1;fontSize=12;fontStyle=0;aspect=fixed;pointerEvents=1;shape=mxgraph.aws4.aurora_instance;" vertex="1" parent="1">
          <mxGeometry x="497" y="251.5" width="19" height="19" as="geometry" />
        </mxCell>
        <mxCell id="lOgc0Rc7WmqNJs67cUO1-21" value="" style="sketch=0;points=[[0,0,0],[0.25,0,0],[0.5,0,0],[0.75,0,0],[1,0,0],[0,1,0],[0.25,1,0],[0.5,1,0],[0.75,1,0],[1,1,0],[0,0.25,0],[0,0.5,0],[0,0.75,0],[1,0.25,0],[1,0.5,0],[1,0.75,0]];outlineConnect=0;gradientColor=#7ea6e0;gradientDirection=north;fillColor=#dae8fc;strokeColor=#6c8ebf;dashed=0;verticalLabelPosition=bottom;verticalAlign=top;align=left;html=1;fontSize=12;fontStyle=0;aspect=fixed;shape=mxgraph.aws4.resourceIcon;resIcon=mxgraph.aws4.aurora;" vertex="1" parent="1">
          <mxGeometry x="468" y="242" width="20" height="20" as="geometry" />
        </mxCell>
        <mxCell id="lOgc0Rc7WmqNJs67cUO1-22" value="replication" style="endArrow=classic;html=1;rounded=0;exitX=1;exitY=0.5;exitDx=0;exitDy=0;entryX=0;entryY=0.5;entryDx=0;entryDy=0;fillColor=#dae8fc;gradientColor=#7ea6e0;strokeColor=#6c8ebf;" edge="1" parent="1" source="lOgc0Rc7WmqNJs67cUO1-8" target="lOgc0Rc7WmqNJs67cUO1-19">
          <mxGeometry x="0.04" y="21" width="50" height="50" relative="1" as="geometry">
            <mxPoint x="520" y="517" as="sourcePoint" />
            <mxPoint x="570" y="467" as="targetPoint" />
            <mxPoint y="1" as="offset" />
          </mxGeometry>
        </mxCell>
        <mxCell id="lOgc0Rc7WmqNJs67cUO1-26" value="EKS Secondary Cluster" style="rounded=0;whiteSpace=wrap;html=1;fillColor=none;align=right;verticalAlign=top;" vertex="1" parent="1">
          <mxGeometry x="470" y="337" width="270" height="60" as="geometry" />
        </mxCell>
        <mxCell id="lOgc0Rc7WmqNJs67cUO1-27" value="Global Cluster Aware Containers" style="sketch=0;html=1;dashed=0;whitespace=wrap;fillColor=#dae8fc;strokeColor=#6c8ebf;points=[[0.005,0.63,0],[0.1,0.2,0],[0.9,0.2,0],[0.5,0,0],[0.995,0.63,0],[0.72,0.99,0],[0.5,1,0],[0.28,0.99,0]];verticalLabelPosition=bottom;align=left;verticalAlign=top;shape=mxgraph.kubernetes.icon;prIcon=pod;gradientColor=#7ea6e0;" vertex="1" parent="1">
          <mxGeometry x="481" y="344.5" width="30" height="30" as="geometry" />
        </mxCell>
        <mxCell id="lOgc0Rc7WmqNJs67cUO1-28" value="" style="endArrow=none;dashed=1;html=1;dashPattern=1 3;strokeWidth=2;rounded=0;exitX=0.995;exitY=0.63;exitDx=0;exitDy=0;exitPerimeter=0;fillColor=#dae8fc;gradientColor=#7ea6e0;strokeColor=#6c8ebf;" edge="1" parent="1">
          <mxGeometry width="50" height="50" relative="1" as="geometry">
            <mxPoint x="513.8499999999999" y="375" as="sourcePoint" />
            <mxPoint x="711" y="375" as="targetPoint" />
          </mxGeometry>
        </mxCell>
        <mxCell id="lOgc0Rc7WmqNJs67cUO1-30" value="read" style="endArrow=classic;html=1;rounded=0;exitX=0.5;exitY=0;exitDx=0;exitDy=0;exitPerimeter=0;entryX=0.107;entryY=1.059;entryDx=0;entryDy=0;entryPerimeter=0;fillColor=#dae8fc;gradientColor=#7ea6e0;strokeColor=#6c8ebf;" edge="1" parent="1">
          <mxGeometry width="50" height="50" relative="1" as="geometry">
            <mxPoint x="496" y="343.5" as="sourcePoint" />
            <mxPoint x="496.8900000000001" y="295.009" as="targetPoint" />
          </mxGeometry>
        </mxCell>
        <mxCell id="lOgc0Rc7WmqNJs67cUO1-39" value="Global Accelerator" style="sketch=0;points=[[0,0,0],[0.25,0,0],[0.5,0,0],[0.75,0,0],[1,0,0],[0,1,0],[0.25,1,0],[0.5,1,0],[0.75,1,0],[1,1,0],[0,0.25,0],[0,0.5,0],[0,0.75,0],[1,0.25,0],[1,0.5,0],[1,0.75,0]];outlineConnect=0;gradientDirection=north;fillColor=#dae8fc;strokeColor=#6c8ebf;dashed=0;verticalLabelPosition=bottom;verticalAlign=top;align=left;html=1;fontSize=12;fontStyle=0;aspect=fixed;shape=mxgraph.aws4.resourceIcon;resIcon=mxgraph.aws4.global_accelerator;" vertex="1" parent="1">
          <mxGeometry x="360.75" y="567" width="78" height="78" as="geometry" />
        </mxCell>
        <mxCell id="lOgc0Rc7WmqNJs67cUO1-43" value="" style="endArrow=classic;html=1;rounded=0;" edge="1" parent="1">
          <mxGeometry width="50" height="50" relative="1" as="geometry">
            <mxPoint x="400.75" y="767" as="sourcePoint" />
            <mxPoint x="400.75" y="677" as="targetPoint" />
          </mxGeometry>
        </mxCell>
        <mxCell id="lOgc0Rc7WmqNJs67cUO1-44" value="External Systems" style="outlineConnect=0;dashed=0;verticalLabelPosition=bottom;verticalAlign=top;align=left;html=1;shape=mxgraph.aws3.internet_2;fillColor=#D2D3D3;gradientColor=none;" vertex="1" parent="1">
          <mxGeometry x="360" y="727" width="79.5" height="54" as="geometry" />
        </mxCell>
        <mxCell id="lOgc0Rc7WmqNJs67cUO1-45" value="EKS Secondary Cluster" style="rounded=0;whiteSpace=wrap;html=1;fillColor=none;align=right;verticalAlign=top;" vertex="1" parent="1">
          <mxGeometry x="59" y="337" width="270" height="60" as="geometry" />
        </mxCell>
        <mxCell id="lOgc0Rc7WmqNJs67cUO1-46" value="Global Cluster Aware Containers" style="sketch=0;html=1;dashed=0;whitespace=wrap;fillColor=#dae8fc;strokeColor=#6c8ebf;points=[[0.005,0.63,0],[0.1,0.2,0],[0.9,0.2,0],[0.5,0,0],[0.995,0.63,0],[0.72,0.99,0],[0.5,1,0],[0.28,0.99,0]];verticalLabelPosition=bottom;align=left;verticalAlign=top;shape=mxgraph.kubernetes.icon;prIcon=pod;gradientColor=#7ea6e0;" vertex="1" parent="1">
          <mxGeometry x="70" y="344.5" width="30" height="30" as="geometry" />
        </mxCell>
        <mxCell id="lOgc0Rc7WmqNJs67cUO1-47" value="" style="endArrow=none;dashed=1;html=1;dashPattern=1 3;strokeWidth=2;rounded=0;exitX=0.995;exitY=0.63;exitDx=0;exitDy=0;exitPerimeter=0;fillColor=#dae8fc;gradientColor=#7ea6e0;strokeColor=#6c8ebf;" edge="1" parent="1">
          <mxGeometry width="50" height="50" relative="1" as="geometry">
            <mxPoint x="102.84999999999991" y="375" as="sourcePoint" />
            <mxPoint x="300" y="375" as="targetPoint" />
          </mxGeometry>
        </mxCell>
        <mxCell id="lOgc0Rc7WmqNJs67cUO1-48" value="write" style="endArrow=classic;html=1;rounded=0;exitX=0.5;exitY=0;exitDx=0;exitDy=0;exitPerimeter=0;entryX=0.107;entryY=1.059;entryDx=0;entryDy=0;entryPerimeter=0;fillColor=#dae8fc;gradientColor=#7ea6e0;strokeColor=#6c8ebf;" edge="1" parent="1">
          <mxGeometry x="-0.0103" width="50" height="50" relative="1" as="geometry">
            <mxPoint x="85" y="343.5" as="sourcePoint" />
            <mxPoint x="85.8900000000001" y="295.009" as="targetPoint" />
            <mxPoint as="offset" />
          </mxGeometry>
        </mxCell>
        <mxCell id="lOgc0Rc7WmqNJs67cUO1-49" value="read" style="endArrow=classic;html=1;rounded=0;exitX=0.5;exitY=0;exitDx=0;exitDy=0;exitPerimeter=0;entryX=0.513;entryY=1.146;entryDx=0;entryDy=0;entryPerimeter=0;fillColor=#dae8fc;strokeColor=#6c8ebf;" edge="1" parent="1" source="lOgc0Rc7WmqNJs67cUO1-46" target="lOgc0Rc7WmqNJs67cUO1-8">
          <mxGeometry width="50" height="50" relative="1" as="geometry">
            <mxPoint x="670" y="447" as="sourcePoint" />
            <mxPoint x="720" y="397" as="targetPoint" />
          </mxGeometry>
        </mxCell>
        <mxCell id="lOgc0Rc7WmqNJs67cUO1-50" value="" style="endArrow=classic;html=1;rounded=0;exitX=0.5;exitY=0;exitDx=0;exitDy=0;exitPerimeter=0;entryX=0.126;entryY=1.103;entryDx=0;entryDy=0;entryPerimeter=0;fillColor=#dae8fc;strokeColor=#6c8ebf;" edge="1" parent="1" source="lOgc0Rc7WmqNJs67cUO1-27" target="lOgc0Rc7WmqNJs67cUO1-8">
          <mxGeometry width="50" height="50" relative="1" as="geometry">
            <mxPoint x="670" y="447" as="sourcePoint" />
            <mxPoint x="720" y="397" as="targetPoint" />
          </mxGeometry>
        </mxCell>
        <mxCell id="lOgc0Rc7WmqNJs67cUO1-51" value="write" style="edgeLabel;html=1;align=center;verticalAlign=middle;resizable=0;points=[];" vertex="1" connectable="0" parent="lOgc0Rc7WmqNJs67cUO1-50">
          <mxGeometry x="-0.4101" y="-1" relative="1" as="geometry">
            <mxPoint as="offset" />
          </mxGeometry>
        </mxCell>
        <mxCell id="lOgc0Rc7WmqNJs67cUO1-55" value="" style="endArrow=classic;html=1;rounded=0;exitX=0.5;exitY=0;exitDx=0;exitDy=0;exitPerimeter=0;fillColor=#dae8fc;strokeColor=#6c8ebf;" edge="1" parent="1" source="lOgc0Rc7WmqNJs67cUO1-39" target="lOgc0Rc7WmqNJs67cUO1-40">
          <mxGeometry width="50" height="50" relative="1" as="geometry">
            <mxPoint x="670" y="557" as="sourcePoint" />
            <mxPoint x="720" y="507" as="targetPoint" />
          </mxGeometry>
        </mxCell>
        <mxCell id="lOgc0Rc7WmqNJs67cUO1-56" value="" style="endArrow=classic;html=1;rounded=0;exitX=0.5;exitY=0;exitDx=0;exitDy=0;exitPerimeter=0;fillColor=#dae8fc;strokeColor=#6c8ebf;" edge="1" parent="1" source="lOgc0Rc7WmqNJs67cUO1-39" target="lOgc0Rc7WmqNJs67cUO1-41">
          <mxGeometry width="50" height="50" relative="1" as="geometry">
            <mxPoint x="670" y="557" as="sourcePoint" />
            <mxPoint x="720" y="507" as="targetPoint" />
          </mxGeometry>
        </mxCell>
        <mxCell id="lOgc0Rc7WmqNJs67cUO1-60" value="" style="endArrow=classic;html=1;rounded=0;exitX=0.5;exitY=0;exitDx=0;exitDy=0;exitPerimeter=0;entryX=0.123;entryY=1.113;entryDx=0;entryDy=0;entryPerimeter=0;fillColor=#dae8fc;strokeColor=#6c8ebf;" edge="1" parent="1" source="lOgc0Rc7WmqNJs67cUO1-53" target="lOgc0Rc7WmqNJs67cUO1-26">
          <mxGeometry width="50" height="50" relative="1" as="geometry">
            <mxPoint x="670" y="547" as="sourcePoint" />
            <mxPoint x="720" y="497" as="targetPoint" />
          </mxGeometry>
        </mxCell>
        <mxCell id="lOgc0Rc7WmqNJs67cUO1-61" value="liveness probe reporting&lt;br&gt;&amp;nbsp;ok on /health" style="edgeLabel;html=1;align=left;verticalAlign=middle;resizable=0;points=[];fontColor=#009900;" vertex="1" connectable="0" parent="lOgc0Rc7WmqNJs67cUO1-60">
          <mxGeometry x="-0.1557" relative="1" as="geometry">
            <mxPoint x="46" y="-3" as="offset" />
          </mxGeometry>
        </mxCell>
        <mxCell id="lOgc0Rc7WmqNJs67cUO1-62" value="VPC Ohio (Primary)" style="points=[[0,0],[0.25,0],[0.5,0],[0.75,0],[1,0],[1,0.25],[1,0.5],[1,0.75],[1,1],[0.75,1],[0.5,1],[0.25,1],[0,1],[0,0.75],[0,0.5],[0,0.25]];outlineConnect=0;gradientColor=none;html=1;whiteSpace=wrap;fontSize=12;fontStyle=0;container=1;pointerEvents=0;collapsible=0;recursiveResize=0;shape=mxgraph.aws4.group;grIcon=mxgraph.aws4.group_vpc;strokeColor=#248814;fillColor=none;verticalAlign=top;align=left;spacingLeft=30;fontColor=#AAB7B8;dashed=0;" vertex="1" parent="1">
          <mxGeometry x="38" y="961" width="310" height="400" as="geometry" />
        </mxCell>
        <mxCell id="lOgc0Rc7WmqNJs67cUO1-63" value="AZ1" style="sketch=0;outlineConnect=0;gradientColor=none;html=1;whiteSpace=wrap;fontSize=12;fontStyle=0;shape=mxgraph.aws4.group;grIcon=mxgraph.aws4.group_availability_zone;strokeColor=#545B64;fillColor=none;verticalAlign=top;align=left;spacingLeft=30;fontColor=#545B64;dashed=1;" vertex="1" parent="lOgc0Rc7WmqNJs67cUO1-62">
          <mxGeometry x="10" y="40" width="90" height="240" as="geometry" />
        </mxCell>
        <mxCell id="lOgc0Rc7WmqNJs67cUO1-64" value="Private subnet-a" style="points=[[0,0],[0.25,0],[0.5,0],[0.75,0],[1,0],[1,0.25],[1,0.5],[1,0.75],[1,1],[0.75,1],[0.5,1],[0.25,1],[0,1],[0,0.75],[0,0.5],[0,0.25]];outlineConnect=0;gradientColor=none;html=1;whiteSpace=wrap;fontSize=12;fontStyle=0;container=1;pointerEvents=0;collapsible=0;recursiveResize=0;shape=mxgraph.aws4.group;grIcon=mxgraph.aws4.group_security_group;grStroke=0;strokeColor=#147EBA;fillColor=#E6F2F8;verticalAlign=top;align=left;spacingLeft=30;fontColor=#147EBA;dashed=0;" vertex="1" parent="lOgc0Rc7WmqNJs67cUO1-62">
          <mxGeometry x="15" y="80" width="80" height="90" as="geometry" />
        </mxCell>
        <mxCell id="lOgc0Rc7WmqNJs67cUO1-65" value="k8s Service" style="sketch=0;html=1;dashed=0;whitespace=wrap;fillColor=#dae8fc;strokeColor=#6c8ebf;points=[[0.005,0.63,0],[0.1,0.2,0],[0.9,0.2,0],[0.5,0,0],[0.995,0.63,0],[0.72,0.99,0],[0.5,1,0],[0.28,0.99,0]];verticalLabelPosition=bottom;align=center;verticalAlign=top;shape=mxgraph.kubernetes.icon;prIcon=svc" vertex="1" parent="lOgc0Rc7WmqNJs67cUO1-62">
          <mxGeometry x="29" y="321.5" width="40" height="37" as="geometry" />
        </mxCell>
        <mxCell id="lOgc0Rc7WmqNJs67cUO1-66" value="EKS Ingress &lt;br&gt;Controller ALB" style="outlineConnect=0;dashed=0;verticalLabelPosition=bottom;verticalAlign=top;align=left;html=1;shape=mxgraph.aws3.application_load_balancer;fillColor=#dae8fc;strokeColor=#6c8ebf;" vertex="1" parent="lOgc0Rc7WmqNJs67cUO1-62">
          <mxGeometry x="229" y="317.5" width="40" height="40" as="geometry" />
        </mxCell>
        <mxCell id="lOgc0Rc7WmqNJs67cUO1-67" value="" style="endArrow=classic;html=1;rounded=0;exitX=0;exitY=0.5;exitDx=0;exitDy=0;exitPerimeter=0;entryX=0.995;entryY=0.413;entryDx=0;entryDy=0;entryPerimeter=0;fillColor=#dae8fc;strokeColor=#FF0000;dashed=1;" edge="1" parent="lOgc0Rc7WmqNJs67cUO1-62" source="lOgc0Rc7WmqNJs67cUO1-66" target="lOgc0Rc7WmqNJs67cUO1-65">
          <mxGeometry width="50" height="50" relative="1" as="geometry">
            <mxPoint x="630" y="430" as="sourcePoint" />
            <mxPoint x="680" y="380" as="targetPoint" />
          </mxGeometry>
        </mxCell>
        <mxCell id="lOgc0Rc7WmqNJs67cUO1-68" value="&lt;font color=&quot;#ff0000&quot;&gt;liveness probe&amp;nbsp;&lt;br&gt;reporting unhealthy on&amp;nbsp;&lt;br&gt;/health due to runtime and&amp;nbsp;&lt;br&gt;boottime topolofyg mismatch&lt;br&gt;&lt;/font&gt;" style="endArrow=classic;html=1;rounded=0;exitX=0.5;exitY=0;exitDx=0;exitDy=0;exitPerimeter=0;fillColor=#fff2cc;strokeColor=#FF0000;align=left;dashed=1;" edge="1" parent="lOgc0Rc7WmqNJs67cUO1-62" source="lOgc0Rc7WmqNJs67cUO1-65" target="lOgc0Rc7WmqNJs67cUO1-63">
          <mxGeometry x="-0.3732" y="-41" width="50" height="50" relative="1" as="geometry">
            <mxPoint x="630" y="430" as="sourcePoint" />
            <mxPoint x="680" y="380" as="targetPoint" />
            <mxPoint as="offset" />
          </mxGeometry>
        </mxCell>
        <mxCell id="lOgc0Rc7WmqNJs67cUO1-69" value="AZ2" style="sketch=0;outlineConnect=0;gradientColor=none;html=1;whiteSpace=wrap;fontSize=12;fontStyle=0;shape=mxgraph.aws4.group;grIcon=mxgraph.aws4.group_availability_zone;strokeColor=#545B64;fillColor=none;verticalAlign=top;align=left;spacingLeft=30;fontColor=#545B64;dashed=1;" vertex="1" parent="1">
          <mxGeometry x="147" y="1001" width="90" height="240" as="geometry" />
        </mxCell>
        <mxCell id="lOgc0Rc7WmqNJs67cUO1-70" value="Private subnet-b" style="points=[[0,0],[0.25,0],[0.5,0],[0.75,0],[1,0],[1,0.25],[1,0.5],[1,0.75],[1,1],[0.75,1],[0.5,1],[0.25,1],[0,1],[0,0.75],[0,0.5],[0,0.25]];outlineConnect=0;gradientColor=none;html=1;whiteSpace=wrap;fontSize=12;fontStyle=0;container=1;pointerEvents=0;collapsible=0;recursiveResize=0;shape=mxgraph.aws4.group;grIcon=mxgraph.aws4.group_security_group;grStroke=0;strokeColor=#147EBA;fillColor=#E6F2F8;verticalAlign=top;align=left;spacingLeft=30;fontColor=#147EBA;dashed=0;" vertex="1" parent="1">
          <mxGeometry x="152" y="1041" width="80" height="90" as="geometry" />
        </mxCell>
        <mxCell id="lOgc0Rc7WmqNJs67cUO1-71" value="AZn" style="sketch=0;outlineConnect=0;gradientColor=none;html=1;whiteSpace=wrap;fontSize=12;fontStyle=0;shape=mxgraph.aws4.group;grIcon=mxgraph.aws4.group_availability_zone;strokeColor=#545B64;fillColor=none;verticalAlign=top;align=left;spacingLeft=30;fontColor=#545B64;dashed=1;" vertex="1" parent="1">
          <mxGeometry x="245" y="1001" width="90" height="240" as="geometry" />
        </mxCell>
        <mxCell id="lOgc0Rc7WmqNJs67cUO1-72" value="Private subnet-c" style="points=[[0,0],[0.25,0],[0.5,0],[0.75,0],[1,0],[1,0.25],[1,0.5],[1,0.75],[1,1],[0.75,1],[0.5,1],[0.25,1],[0,1],[0,0.75],[0,0.5],[0,0.25]];outlineConnect=0;gradientColor=none;html=1;whiteSpace=wrap;fontSize=12;fontStyle=0;container=1;pointerEvents=0;collapsible=0;recursiveResize=0;shape=mxgraph.aws4.group;grIcon=mxgraph.aws4.group_security_group;grStroke=0;strokeColor=#147EBA;fillColor=#E6F2F8;verticalAlign=top;align=left;spacingLeft=30;fontColor=#147EBA;dashed=0;" vertex="1" parent="1">
          <mxGeometry x="250" y="1041" width="80" height="90" as="geometry" />
        </mxCell>
        <mxCell id="lOgc0Rc7WmqNJs67cUO1-73" value="RDS Primary Cluster" style="rounded=0;whiteSpace=wrap;html=1;fillColor=none;align=right;verticalAlign=top;" vertex="1" parent="1">
          <mxGeometry x="56" y="1076" width="270" height="51" as="geometry" />
        </mxCell>
        <mxCell id="lOgc0Rc7WmqNJs67cUO1-74" value="&lt;font color=&quot;#ff0000&quot;&gt;Replica&lt;/font&gt;" style="sketch=0;outlineConnect=0;gradientColor=#7ea6e0;fillColor=#dae8fc;strokeColor=#6c8ebf;dashed=0;verticalLabelPosition=bottom;verticalAlign=top;align=left;html=1;fontSize=12;fontStyle=0;aspect=fixed;pointerEvents=1;shape=mxgraph.aws4.aurora_instance;" vertex="1" parent="1">
          <mxGeometry x="85" y="1085.5" width="19" height="19" as="geometry" />
        </mxCell>
        <mxCell id="lOgc0Rc7WmqNJs67cUO1-75" value="" style="sketch=0;points=[[0,0,0],[0.25,0,0],[0.5,0,0],[0.75,0,0],[1,0,0],[0,1,0],[0.25,1,0],[0.5,1,0],[0.75,1,0],[1,1,0],[0,0.25,0],[0,0.5,0],[0,0.75,0],[1,0.25,0],[1,0.5,0],[1,0.75,0]];outlineConnect=0;gradientColor=#7ea6e0;gradientDirection=north;fillColor=#dae8fc;strokeColor=#6c8ebf;dashed=0;verticalLabelPosition=bottom;verticalAlign=top;align=left;html=1;fontSize=12;fontStyle=0;aspect=fixed;shape=mxgraph.aws4.resourceIcon;resIcon=mxgraph.aws4.aurora;" vertex="1" parent="1">
          <mxGeometry x="56" y="1076" width="20" height="20" as="geometry" />
        </mxCell>
        <mxCell id="lOgc0Rc7WmqNJs67cUO1-76" value="Replica" style="sketch=0;outlineConnect=0;gradientColor=#7ea6e0;fillColor=#dae8fc;strokeColor=#6c8ebf;dashed=0;verticalLabelPosition=bottom;verticalAlign=top;align=left;html=1;fontSize=12;fontStyle=0;aspect=fixed;pointerEvents=1;shape=mxgraph.aws4.aurora_instance;" vertex="1" parent="1">
          <mxGeometry x="175" y="1087.5" width="19" height="19" as="geometry" />
        </mxCell>
        <mxCell id="lOgc0Rc7WmqNJs67cUO1-77" value="VPC Oregon (Secondary)" style="points=[[0,0],[0.25,0],[0.5,0],[0.75,0],[1,0],[1,0.25],[1,0.5],[1,0.75],[1,1],[0.75,1],[0.5,1],[0.25,1],[0,1],[0,0.75],[0,0.5],[0,0.25]];outlineConnect=0;gradientColor=none;html=1;whiteSpace=wrap;fontSize=12;fontStyle=0;container=1;pointerEvents=0;collapsible=0;recursiveResize=0;shape=mxgraph.aws4.group;grIcon=mxgraph.aws4.group_vpc;strokeColor=#248814;fillColor=none;verticalAlign=top;align=left;spacingLeft=30;fontColor=#AAB7B8;dashed=0;" vertex="1" parent="1">
          <mxGeometry x="448" y="961" width="310" height="400" as="geometry" />
        </mxCell>
        <mxCell id="lOgc0Rc7WmqNJs67cUO1-78" value="AZ1" style="sketch=0;outlineConnect=0;gradientColor=none;html=1;whiteSpace=wrap;fontSize=12;fontStyle=0;shape=mxgraph.aws4.group;grIcon=mxgraph.aws4.group_availability_zone;strokeColor=#545B64;fillColor=none;verticalAlign=top;align=left;spacingLeft=30;fontColor=#545B64;dashed=1;" vertex="1" parent="lOgc0Rc7WmqNJs67cUO1-77">
          <mxGeometry x="10" y="40" width="90" height="240" as="geometry" />
        </mxCell>
        <mxCell id="lOgc0Rc7WmqNJs67cUO1-79" value="Private subnet-a" style="points=[[0,0],[0.25,0],[0.5,0],[0.75,0],[1,0],[1,0.25],[1,0.5],[1,0.75],[1,1],[0.75,1],[0.5,1],[0.25,1],[0,1],[0,0.75],[0,0.5],[0,0.25]];outlineConnect=0;gradientColor=none;html=1;whiteSpace=wrap;fontSize=12;fontStyle=0;container=1;pointerEvents=0;collapsible=0;recursiveResize=0;shape=mxgraph.aws4.group;grIcon=mxgraph.aws4.group_security_group;grStroke=0;strokeColor=#147EBA;fillColor=#E6F2F8;verticalAlign=top;align=left;spacingLeft=30;fontColor=#147EBA;dashed=0;" vertex="1" parent="lOgc0Rc7WmqNJs67cUO1-77">
          <mxGeometry x="15" y="80" width="80" height="90" as="geometry" />
        </mxCell>
        <mxCell id="lOgc0Rc7WmqNJs67cUO1-80" value="EKS Ingress &lt;br&gt;Controller ALB" style="outlineConnect=0;dashed=0;verticalLabelPosition=bottom;verticalAlign=top;align=left;html=1;shape=mxgraph.aws3.application_load_balancer;fillColor=#dae8fc;strokeColor=#6c8ebf;" vertex="1" parent="lOgc0Rc7WmqNJs67cUO1-77">
          <mxGeometry x="15" y="320" width="43" height="38" as="geometry" />
        </mxCell>
        <mxCell id="lOgc0Rc7WmqNJs67cUO1-81" value="k8s Service" style="sketch=0;html=1;dashed=0;whitespace=wrap;fillColor=#dae8fc;strokeColor=#6c8ebf;points=[[0.005,0.63,0],[0.1,0.2,0],[0.9,0.2,0],[0.5,0,0],[0.995,0.63,0],[0.72,0.99,0],[0.5,1,0],[0.28,0.99,0]];verticalLabelPosition=bottom;align=center;verticalAlign=top;shape=mxgraph.kubernetes.icon;prIcon=svc" vertex="1" parent="lOgc0Rc7WmqNJs67cUO1-77">
          <mxGeometry x="156" y="322" width="40" height="37" as="geometry" />
        </mxCell>
        <mxCell id="lOgc0Rc7WmqNJs67cUO1-82" value="" style="endArrow=classic;html=1;rounded=0;exitX=1;exitY=0.5;exitDx=0;exitDy=0;exitPerimeter=0;fillColor=#dae8fc;strokeColor=#FF0000;dashed=1;" edge="1" parent="lOgc0Rc7WmqNJs67cUO1-77" source="lOgc0Rc7WmqNJs67cUO1-80">
          <mxGeometry width="50" height="50" relative="1" as="geometry">
            <mxPoint x="220" y="430" as="sourcePoint" />
            <mxPoint x="160" y="339" as="targetPoint" />
          </mxGeometry>
        </mxCell>
        <mxCell id="lOgc0Rc7WmqNJs67cUO1-83" value="AZ2" style="sketch=0;outlineConnect=0;gradientColor=none;html=1;whiteSpace=wrap;fontSize=12;fontStyle=0;shape=mxgraph.aws4.group;grIcon=mxgraph.aws4.group_availability_zone;strokeColor=#545B64;fillColor=none;verticalAlign=top;align=left;spacingLeft=30;fontColor=#545B64;dashed=1;" vertex="1" parent="1">
          <mxGeometry x="557" y="1001" width="90" height="240" as="geometry" />
        </mxCell>
        <mxCell id="lOgc0Rc7WmqNJs67cUO1-84" value="Private subnet-b" style="points=[[0,0],[0.25,0],[0.5,0],[0.75,0],[1,0],[1,0.25],[1,0.5],[1,0.75],[1,1],[0.75,1],[0.5,1],[0.25,1],[0,1],[0,0.75],[0,0.5],[0,0.25]];outlineConnect=0;gradientColor=none;html=1;whiteSpace=wrap;fontSize=12;fontStyle=0;container=1;pointerEvents=0;collapsible=0;recursiveResize=0;shape=mxgraph.aws4.group;grIcon=mxgraph.aws4.group_security_group;grStroke=0;strokeColor=#147EBA;fillColor=#E6F2F8;verticalAlign=top;align=left;spacingLeft=30;fontColor=#147EBA;dashed=0;" vertex="1" parent="1">
          <mxGeometry x="562" y="1041" width="80" height="90" as="geometry" />
        </mxCell>
        <mxCell id="lOgc0Rc7WmqNJs67cUO1-85" value="AZn" style="sketch=0;outlineConnect=0;gradientColor=none;html=1;whiteSpace=wrap;fontSize=12;fontStyle=0;shape=mxgraph.aws4.group;grIcon=mxgraph.aws4.group_availability_zone;strokeColor=#545B64;fillColor=none;verticalAlign=top;align=left;spacingLeft=30;fontColor=#545B64;dashed=1;" vertex="1" parent="1">
          <mxGeometry x="655" y="1001" width="90" height="240" as="geometry" />
        </mxCell>
        <mxCell id="lOgc0Rc7WmqNJs67cUO1-86" value="Private subnet-c" style="points=[[0,0],[0.25,0],[0.5,0],[0.75,0],[1,0],[1,0.25],[1,0.5],[1,0.75],[1,1],[0.75,1],[0.5,1],[0.25,1],[0,1],[0,0.75],[0,0.5],[0,0.25]];outlineConnect=0;gradientColor=none;html=1;whiteSpace=wrap;fontSize=12;fontStyle=0;container=1;pointerEvents=0;collapsible=0;recursiveResize=0;shape=mxgraph.aws4.group;grIcon=mxgraph.aws4.group_security_group;grStroke=0;strokeColor=#147EBA;fillColor=#E6F2F8;verticalAlign=top;align=left;spacingLeft=30;fontColor=#147EBA;dashed=0;" vertex="1" parent="1">
          <mxGeometry x="660" y="1041" width="80" height="90" as="geometry" />
        </mxCell>
        <mxCell id="lOgc0Rc7WmqNJs67cUO1-87" value="RDS Secondary Cluster" style="rounded=0;whiteSpace=wrap;html=1;fillColor=none;align=right;verticalAlign=top;" vertex="1" parent="1">
          <mxGeometry x="466" y="1076" width="270" height="51" as="geometry" />
        </mxCell>
        <mxCell id="lOgc0Rc7WmqNJs67cUO1-88" value="&lt;font color=&quot;#ff0000&quot;&gt;Primary&lt;/font&gt;" style="sketch=0;outlineConnect=0;gradientColor=#7ea6e0;fillColor=#dae8fc;strokeColor=#6c8ebf;dashed=0;verticalLabelPosition=bottom;verticalAlign=top;align=left;html=1;fontSize=12;fontStyle=0;aspect=fixed;pointerEvents=1;shape=mxgraph.aws4.aurora_instance;" vertex="1" parent="1">
          <mxGeometry x="495" y="1085.5" width="19" height="19" as="geometry" />
        </mxCell>
        <mxCell id="lOgc0Rc7WmqNJs67cUO1-89" value="" style="sketch=0;points=[[0,0,0],[0.25,0,0],[0.5,0,0],[0.75,0,0],[1,0,0],[0,1,0],[0.25,1,0],[0.5,1,0],[0.75,1,0],[1,1,0],[0,0.25,0],[0,0.5,0],[0,0.75,0],[1,0.25,0],[1,0.5,0],[1,0.75,0]];outlineConnect=0;gradientColor=#7ea6e0;gradientDirection=north;fillColor=#dae8fc;strokeColor=#6c8ebf;dashed=0;verticalLabelPosition=bottom;verticalAlign=top;align=left;html=1;fontSize=12;fontStyle=0;aspect=fixed;shape=mxgraph.aws4.resourceIcon;resIcon=mxgraph.aws4.aurora;" vertex="1" parent="1">
          <mxGeometry x="466" y="1076" width="20" height="20" as="geometry" />
        </mxCell>
        <mxCell id="lOgc0Rc7WmqNJs67cUO1-90" value="replication" style="endArrow=classic;html=1;rounded=0;exitX=0;exitY=0.5;exitDx=0;exitDy=0;entryX=1;entryY=0.5;entryDx=0;entryDy=0;fillColor=#dae8fc;gradientColor=#7ea6e0;strokeColor=#FF0000;dashed=1;" edge="1" parent="1" source="lOgc0Rc7WmqNJs67cUO1-87" target="lOgc0Rc7WmqNJs67cUO1-73">
          <mxGeometry x="0.04" y="21" width="50" height="50" relative="1" as="geometry">
            <mxPoint x="568" y="1301" as="sourcePoint" />
            <mxPoint x="518" y="1351" as="targetPoint" />
            <mxPoint y="1" as="offset" />
          </mxGeometry>
        </mxCell>
        <mxCell id="lOgc0Rc7WmqNJs67cUO1-91" value="EKS Secondary Cluster" style="rounded=0;whiteSpace=wrap;html=1;fillColor=none;align=right;verticalAlign=top;" vertex="1" parent="1">
          <mxGeometry x="468" y="1171" width="270" height="60" as="geometry" />
        </mxCell>
        <mxCell id="lOgc0Rc7WmqNJs67cUO1-92" value="Global Cluster Aware Containers" style="sketch=0;html=1;dashed=0;whitespace=wrap;fillColor=#dae8fc;strokeColor=#6c8ebf;points=[[0.005,0.63,0],[0.1,0.2,0],[0.9,0.2,0],[0.5,0,0],[0.995,0.63,0],[0.72,0.99,0],[0.5,1,0],[0.28,0.99,0]];verticalLabelPosition=bottom;align=left;verticalAlign=top;shape=mxgraph.kubernetes.icon;prIcon=pod;gradientColor=#7ea6e0;" vertex="1" parent="1">
          <mxGeometry x="479" y="1178.5" width="30" height="30" as="geometry" />
        </mxCell>
        <mxCell id="lOgc0Rc7WmqNJs67cUO1-93" value="" style="endArrow=none;dashed=1;html=1;dashPattern=1 3;strokeWidth=2;rounded=0;exitX=0.995;exitY=0.63;exitDx=0;exitDy=0;exitPerimeter=0;fillColor=#dae8fc;gradientColor=#7ea6e0;strokeColor=#6c8ebf;" edge="1" parent="1">
          <mxGeometry width="50" height="50" relative="1" as="geometry">
            <mxPoint x="511.8499999999999" y="1209" as="sourcePoint" />
            <mxPoint x="709" y="1209" as="targetPoint" />
          </mxGeometry>
        </mxCell>
        <mxCell id="lOgc0Rc7WmqNJs67cUO1-94" value="read" style="endArrow=classic;html=1;rounded=0;exitX=0.5;exitY=0;exitDx=0;exitDy=0;exitPerimeter=0;entryX=0.107;entryY=1.059;entryDx=0;entryDy=0;entryPerimeter=0;fillColor=#dae8fc;gradientColor=#7ea6e0;strokeColor=#6c8ebf;" edge="1" parent="1">
          <mxGeometry width="50" height="50" relative="1" as="geometry">
            <mxPoint x="494" y="1177.5" as="sourcePoint" />
            <mxPoint x="494.8900000000001" y="1129.009" as="targetPoint" />
          </mxGeometry>
        </mxCell>
        <mxCell id="lOgc0Rc7WmqNJs67cUO1-95" value="Global Accelerator" style="sketch=0;points=[[0,0,0],[0.25,0,0],[0.5,0,0],[0.75,0,0],[1,0,0],[0,1,0],[0.25,1,0],[0.5,1,0],[0.75,1,0],[1,1,0],[0,0.25,0],[0,0.5,0],[0,0.75,0],[1,0.25,0],[1,0.5,0],[1,0.75,0]];outlineConnect=0;gradientDirection=north;fillColor=#dae8fc;strokeColor=#6c8ebf;dashed=0;verticalLabelPosition=bottom;verticalAlign=top;align=left;html=1;fontSize=12;fontStyle=0;aspect=fixed;shape=mxgraph.aws4.resourceIcon;resIcon=mxgraph.aws4.global_accelerator;" vertex="1" parent="1">
          <mxGeometry x="358.75" y="1401" width="78" height="78" as="geometry" />
        </mxCell>
        <mxCell id="lOgc0Rc7WmqNJs67cUO1-96" value="" style="endArrow=classic;html=1;rounded=0;" edge="1" parent="1">
          <mxGeometry width="50" height="50" relative="1" as="geometry">
            <mxPoint x="398.75" y="1601" as="sourcePoint" />
            <mxPoint x="398.75" y="1511" as="targetPoint" />
          </mxGeometry>
        </mxCell>
        <mxCell id="lOgc0Rc7WmqNJs67cUO1-97" value="External Systems" style="outlineConnect=0;dashed=0;verticalLabelPosition=bottom;verticalAlign=top;align=left;html=1;shape=mxgraph.aws3.internet_2;fillColor=#D2D3D3;gradientColor=none;" vertex="1" parent="1">
          <mxGeometry x="358" y="1561" width="79.5" height="54" as="geometry" />
        </mxCell>
        <mxCell id="lOgc0Rc7WmqNJs67cUO1-98" value="EKS Secondary Cluster" style="rounded=0;whiteSpace=wrap;html=1;fillColor=none;align=right;verticalAlign=top;" vertex="1" parent="1">
          <mxGeometry x="57" y="1171" width="270" height="60" as="geometry" />
        </mxCell>
        <mxCell id="lOgc0Rc7WmqNJs67cUO1-99" value="Global Cluster Aware Containers" style="sketch=0;html=1;dashed=0;whitespace=wrap;fillColor=#dae8fc;strokeColor=#6c8ebf;points=[[0.005,0.63,0],[0.1,0.2,0],[0.9,0.2,0],[0.5,0,0],[0.995,0.63,0],[0.72,0.99,0],[0.5,1,0],[0.28,0.99,0]];verticalLabelPosition=bottom;align=left;verticalAlign=top;shape=mxgraph.kubernetes.icon;prIcon=pod;gradientColor=#7ea6e0;" vertex="1" parent="1">
          <mxGeometry x="68" y="1178.5" width="30" height="30" as="geometry" />
        </mxCell>
        <mxCell id="lOgc0Rc7WmqNJs67cUO1-100" value="" style="endArrow=none;dashed=1;html=1;dashPattern=1 3;strokeWidth=2;rounded=0;exitX=0.995;exitY=0.63;exitDx=0;exitDy=0;exitPerimeter=0;fillColor=#dae8fc;gradientColor=#7ea6e0;strokeColor=#6c8ebf;" edge="1" parent="1">
          <mxGeometry width="50" height="50" relative="1" as="geometry">
            <mxPoint x="100.84999999999991" y="1209" as="sourcePoint" />
            <mxPoint x="298" y="1209" as="targetPoint" />
          </mxGeometry>
        </mxCell>
        <mxCell id="lOgc0Rc7WmqNJs67cUO1-101" value="write" style="endArrow=classic;html=1;rounded=0;exitX=0.5;exitY=0;exitDx=0;exitDy=0;exitPerimeter=0;entryX=0.107;entryY=1.059;entryDx=0;entryDy=0;entryPerimeter=0;fillColor=#fff2cc;strokeColor=#FF0000;dashed=1;" edge="1" parent="1">
          <mxGeometry x="-0.0103" width="50" height="50" relative="1" as="geometry">
            <mxPoint x="83" y="1177.5" as="sourcePoint" />
            <mxPoint x="83.8900000000001" y="1129.009" as="targetPoint" />
            <mxPoint as="offset" />
          </mxGeometry>
        </mxCell>
        <mxCell id="lOgc0Rc7WmqNJs67cUO1-102" value="read" style="endArrow=classic;html=1;rounded=0;exitX=0.5;exitY=0;exitDx=0;exitDy=0;exitPerimeter=0;entryX=0.513;entryY=1.146;entryDx=0;entryDy=0;entryPerimeter=0;fillColor=#dae8fc;strokeColor=#6c8ebf;" edge="1" parent="1" source="lOgc0Rc7WmqNJs67cUO1-99" target="lOgc0Rc7WmqNJs67cUO1-73">
          <mxGeometry width="50" height="50" relative="1" as="geometry">
            <mxPoint x="668" y="1281" as="sourcePoint" />
            <mxPoint x="718" y="1231" as="targetPoint" />
          </mxGeometry>
        </mxCell>
        <mxCell id="lOgc0Rc7WmqNJs67cUO1-103" value="" style="endArrow=classic;html=1;rounded=0;exitX=0.5;exitY=0;exitDx=0;exitDy=0;exitPerimeter=0;entryX=0.126;entryY=1.103;entryDx=0;entryDy=0;entryPerimeter=0;fillColor=#fff2cc;strokeColor=#FF0000;dashed=1;" edge="1" parent="1" source="lOgc0Rc7WmqNJs67cUO1-92" target="lOgc0Rc7WmqNJs67cUO1-73">
          <mxGeometry width="50" height="50" relative="1" as="geometry">
            <mxPoint x="668" y="1281" as="sourcePoint" />
            <mxPoint x="718" y="1231" as="targetPoint" />
          </mxGeometry>
        </mxCell>
        <mxCell id="lOgc0Rc7WmqNJs67cUO1-104" value="write" style="edgeLabel;html=1;align=center;verticalAlign=middle;resizable=0;points=[];" vertex="1" connectable="0" parent="lOgc0Rc7WmqNJs67cUO1-103">
          <mxGeometry x="-0.4101" y="-1" relative="1" as="geometry">
            <mxPoint as="offset" />
          </mxGeometry>
        </mxCell>
        <mxCell id="lOgc0Rc7WmqNJs67cUO1-105" value="" style="endArrow=classic;html=1;rounded=0;exitX=0.5;exitY=0;exitDx=0;exitDy=0;exitPerimeter=0;fillColor=#dae8fc;strokeColor=#FF0000;dashed=1;" edge="1" parent="1" source="lOgc0Rc7WmqNJs67cUO1-95" target="lOgc0Rc7WmqNJs67cUO1-80">
          <mxGeometry width="50" height="50" relative="1" as="geometry">
            <mxPoint x="668" y="1391" as="sourcePoint" />
            <mxPoint x="718" y="1341" as="targetPoint" />
          </mxGeometry>
        </mxCell>
        <mxCell id="lOgc0Rc7WmqNJs67cUO1-106" value="" style="endArrow=classic;html=1;rounded=0;exitX=0.5;exitY=0;exitDx=0;exitDy=0;exitPerimeter=0;fillColor=#dae8fc;strokeColor=#FF0000;dashed=1;" edge="1" parent="1" source="lOgc0Rc7WmqNJs67cUO1-95" target="lOgc0Rc7WmqNJs67cUO1-66">
          <mxGeometry width="50" height="50" relative="1" as="geometry">
            <mxPoint x="668" y="1391" as="sourcePoint" />
            <mxPoint x="718" y="1341" as="targetPoint" />
          </mxGeometry>
        </mxCell>
        <mxCell id="lOgc0Rc7WmqNJs67cUO1-107" value="" style="endArrow=classic;html=1;rounded=0;exitX=0.5;exitY=0;exitDx=0;exitDy=0;exitPerimeter=0;entryX=0.123;entryY=1.113;entryDx=0;entryDy=0;entryPerimeter=0;fillColor=#fff2cc;strokeColor=#FF0000;dashed=1;" edge="1" parent="1" source="lOgc0Rc7WmqNJs67cUO1-81" target="lOgc0Rc7WmqNJs67cUO1-91">
          <mxGeometry width="50" height="50" relative="1" as="geometry">
            <mxPoint x="668" y="1381" as="sourcePoint" />
            <mxPoint x="718" y="1331" as="targetPoint" />
          </mxGeometry>
        </mxCell>
        <mxCell id="lOgc0Rc7WmqNJs67cUO1-108" value="&lt;font color=&quot;#ff0000&quot;&gt;liveness probe&amp;nbsp;&lt;br style=&quot;border-color: var(--border-color);&quot;&gt;&lt;/font&gt;&lt;span style=&quot;color: rgb(255, 0, 0);&quot;&gt;reporting unhealthy on&amp;nbsp;&lt;/span&gt;&lt;br style=&quot;border-color: var(--border-color); color: rgb(255, 0, 0);&quot;&gt;&lt;span style=&quot;color: rgb(255, 0, 0);&quot;&gt;/health due to runtime and&amp;nbsp;&lt;/span&gt;&lt;br style=&quot;border-color: var(--border-color); color: rgb(255, 0, 0);&quot;&gt;&lt;span style=&quot;color: rgb(255, 0, 0);&quot;&gt;boottime topolofyg mismatch&lt;/span&gt;" style="edgeLabel;html=1;align=left;verticalAlign=middle;resizable=0;points=[];fontColor=#009900;" vertex="1" connectable="0" parent="lOgc0Rc7WmqNJs67cUO1-107">
          <mxGeometry x="-0.1557" relative="1" as="geometry">
            <mxPoint x="46" y="-3" as="offset" />
          </mxGeometry>
        </mxCell>
        <mxCell id="lOgc0Rc7WmqNJs67cUO1-113" value="&lt;h1&gt;1. BootTime Global DB Cluster Topology&lt;/h1&gt;" style="text;html=1;strokeColor=none;fillColor=none;spacing=5;spacingTop=-20;whiteSpace=wrap;overflow=hidden;rounded=0;" vertex="1" parent="1">
          <mxGeometry x="33" y="20" width="487" height="60" as="geometry" />
        </mxCell>
        <mxCell id="lOgc0Rc7WmqNJs67cUO1-114" value="&lt;h1&gt;2. Runtime DB Cluster Failover in Progress&lt;/h1&gt;" style="text;html=1;strokeColor=none;fillColor=none;spacing=5;spacingTop=-20;whiteSpace=wrap;overflow=hidden;rounded=0;" vertex="1" parent="1">
          <mxGeometry x="31" y="865" width="514" height="60" as="geometry" />
        </mxCell>
        <mxCell id="lOgc0Rc7WmqNJs67cUO1-116" value="VPC Ohio (Primary)" style="points=[[0,0],[0.25,0],[0.5,0],[0.75,0],[1,0],[1,0.25],[1,0.5],[1,0.75],[1,1],[0.75,1],[0.5,1],[0.25,1],[0,1],[0,0.75],[0,0.5],[0,0.25]];outlineConnect=0;gradientColor=none;html=1;whiteSpace=wrap;fontSize=12;fontStyle=0;container=1;pointerEvents=0;collapsible=0;recursiveResize=0;shape=mxgraph.aws4.group;grIcon=mxgraph.aws4.group_vpc;strokeColor=#248814;fillColor=none;verticalAlign=top;align=left;spacingLeft=30;fontColor=#AAB7B8;dashed=0;" vertex="1" parent="1">
          <mxGeometry x="48" y="1836" width="310" height="400" as="geometry" />
        </mxCell>
        <mxCell id="lOgc0Rc7WmqNJs67cUO1-117" value="AZ1" style="sketch=0;outlineConnect=0;gradientColor=none;html=1;whiteSpace=wrap;fontSize=12;fontStyle=0;shape=mxgraph.aws4.group;grIcon=mxgraph.aws4.group_availability_zone;strokeColor=#545B64;fillColor=none;verticalAlign=top;align=left;spacingLeft=30;fontColor=#545B64;dashed=1;" vertex="1" parent="lOgc0Rc7WmqNJs67cUO1-116">
          <mxGeometry x="10" y="40" width="90" height="240" as="geometry" />
        </mxCell>
        <mxCell id="lOgc0Rc7WmqNJs67cUO1-118" value="Private subnet-a" style="points=[[0,0],[0.25,0],[0.5,0],[0.75,0],[1,0],[1,0.25],[1,0.5],[1,0.75],[1,1],[0.75,1],[0.5,1],[0.25,1],[0,1],[0,0.75],[0,0.5],[0,0.25]];outlineConnect=0;gradientColor=none;html=1;whiteSpace=wrap;fontSize=12;fontStyle=0;container=1;pointerEvents=0;collapsible=0;recursiveResize=0;shape=mxgraph.aws4.group;grIcon=mxgraph.aws4.group_security_group;grStroke=0;strokeColor=#147EBA;fillColor=#E6F2F8;verticalAlign=top;align=left;spacingLeft=30;fontColor=#147EBA;dashed=0;" vertex="1" parent="lOgc0Rc7WmqNJs67cUO1-116">
          <mxGeometry x="15" y="80" width="80" height="90" as="geometry" />
        </mxCell>
        <mxCell id="lOgc0Rc7WmqNJs67cUO1-119" value="k8s Service" style="sketch=0;html=1;dashed=0;whitespace=wrap;fillColor=#dae8fc;strokeColor=#6c8ebf;points=[[0.005,0.63,0],[0.1,0.2,0],[0.9,0.2,0],[0.5,0,0],[0.995,0.63,0],[0.72,0.99,0],[0.5,1,0],[0.28,0.99,0]];verticalLabelPosition=bottom;align=center;verticalAlign=top;shape=mxgraph.kubernetes.icon;prIcon=svc" vertex="1" parent="lOgc0Rc7WmqNJs67cUO1-116">
          <mxGeometry x="29" y="321.5" width="40" height="37" as="geometry" />
        </mxCell>
        <mxCell id="lOgc0Rc7WmqNJs67cUO1-120" value="EKS Ingress &lt;br&gt;Controller ALB" style="outlineConnect=0;dashed=0;verticalLabelPosition=bottom;verticalAlign=top;align=left;html=1;shape=mxgraph.aws3.application_load_balancer;fillColor=#dae8fc;strokeColor=#6c8ebf;" vertex="1" parent="lOgc0Rc7WmqNJs67cUO1-116">
          <mxGeometry x="229" y="317.5" width="40" height="40" as="geometry" />
        </mxCell>
        <mxCell id="lOgc0Rc7WmqNJs67cUO1-121" value="" style="endArrow=classic;html=1;rounded=0;exitX=0;exitY=0.5;exitDx=0;exitDy=0;exitPerimeter=0;entryX=0.995;entryY=0.413;entryDx=0;entryDy=0;entryPerimeter=0;fillColor=#dae8fc;strokeColor=#009900;" edge="1" parent="lOgc0Rc7WmqNJs67cUO1-116" source="lOgc0Rc7WmqNJs67cUO1-120" target="lOgc0Rc7WmqNJs67cUO1-119">
          <mxGeometry width="50" height="50" relative="1" as="geometry">
            <mxPoint x="630" y="430" as="sourcePoint" />
            <mxPoint x="680" y="380" as="targetPoint" />
          </mxGeometry>
        </mxCell>
        <mxCell id="lOgc0Rc7WmqNJs67cUO1-123" value="AZ2" style="sketch=0;outlineConnect=0;gradientColor=none;html=1;whiteSpace=wrap;fontSize=12;fontStyle=0;shape=mxgraph.aws4.group;grIcon=mxgraph.aws4.group_availability_zone;strokeColor=#545B64;fillColor=none;verticalAlign=top;align=left;spacingLeft=30;fontColor=#545B64;dashed=1;" vertex="1" parent="1">
          <mxGeometry x="157" y="1876" width="90" height="240" as="geometry" />
        </mxCell>
        <mxCell id="lOgc0Rc7WmqNJs67cUO1-124" value="Private subnet-b" style="points=[[0,0],[0.25,0],[0.5,0],[0.75,0],[1,0],[1,0.25],[1,0.5],[1,0.75],[1,1],[0.75,1],[0.5,1],[0.25,1],[0,1],[0,0.75],[0,0.5],[0,0.25]];outlineConnect=0;gradientColor=none;html=1;whiteSpace=wrap;fontSize=12;fontStyle=0;container=1;pointerEvents=0;collapsible=0;recursiveResize=0;shape=mxgraph.aws4.group;grIcon=mxgraph.aws4.group_security_group;grStroke=0;strokeColor=#147EBA;fillColor=#E6F2F8;verticalAlign=top;align=left;spacingLeft=30;fontColor=#147EBA;dashed=0;" vertex="1" parent="1">
          <mxGeometry x="162" y="1916" width="80" height="90" as="geometry" />
        </mxCell>
        <mxCell id="lOgc0Rc7WmqNJs67cUO1-125" value="AZn" style="sketch=0;outlineConnect=0;gradientColor=none;html=1;whiteSpace=wrap;fontSize=12;fontStyle=0;shape=mxgraph.aws4.group;grIcon=mxgraph.aws4.group_availability_zone;strokeColor=#545B64;fillColor=none;verticalAlign=top;align=left;spacingLeft=30;fontColor=#545B64;dashed=1;" vertex="1" parent="1">
          <mxGeometry x="255" y="1876" width="90" height="240" as="geometry" />
        </mxCell>
        <mxCell id="lOgc0Rc7WmqNJs67cUO1-126" value="Private subnet-c" style="points=[[0,0],[0.25,0],[0.5,0],[0.75,0],[1,0],[1,0.25],[1,0.5],[1,0.75],[1,1],[0.75,1],[0.5,1],[0.25,1],[0,1],[0,0.75],[0,0.5],[0,0.25]];outlineConnect=0;gradientColor=none;html=1;whiteSpace=wrap;fontSize=12;fontStyle=0;container=1;pointerEvents=0;collapsible=0;recursiveResize=0;shape=mxgraph.aws4.group;grIcon=mxgraph.aws4.group_security_group;grStroke=0;strokeColor=#147EBA;fillColor=#E6F2F8;verticalAlign=top;align=left;spacingLeft=30;fontColor=#147EBA;dashed=0;" vertex="1" parent="1">
          <mxGeometry x="260" y="1916" width="80" height="90" as="geometry" />
        </mxCell>
        <mxCell id="lOgc0Rc7WmqNJs67cUO1-127" value="RDS Primary Cluster" style="rounded=0;whiteSpace=wrap;html=1;fillColor=none;align=right;verticalAlign=top;" vertex="1" parent="1">
          <mxGeometry x="66" y="1951" width="270" height="51" as="geometry" />
        </mxCell>
        <mxCell id="lOgc0Rc7WmqNJs67cUO1-128" value="&lt;font color=&quot;#009900&quot;&gt;Replica&lt;/font&gt;" style="sketch=0;outlineConnect=0;gradientColor=#7ea6e0;fillColor=#dae8fc;strokeColor=#6c8ebf;dashed=0;verticalLabelPosition=bottom;verticalAlign=top;align=left;html=1;fontSize=12;fontStyle=0;aspect=fixed;pointerEvents=1;shape=mxgraph.aws4.aurora_instance;" vertex="1" parent="1">
          <mxGeometry x="95" y="1960.5" width="19" height="19" as="geometry" />
        </mxCell>
        <mxCell id="lOgc0Rc7WmqNJs67cUO1-129" value="" style="sketch=0;points=[[0,0,0],[0.25,0,0],[0.5,0,0],[0.75,0,0],[1,0,0],[0,1,0],[0.25,1,0],[0.5,1,0],[0.75,1,0],[1,1,0],[0,0.25,0],[0,0.5,0],[0,0.75,0],[1,0.25,0],[1,0.5,0],[1,0.75,0]];outlineConnect=0;gradientColor=#7ea6e0;gradientDirection=north;fillColor=#dae8fc;strokeColor=#6c8ebf;dashed=0;verticalLabelPosition=bottom;verticalAlign=top;align=left;html=1;fontSize=12;fontStyle=0;aspect=fixed;shape=mxgraph.aws4.resourceIcon;resIcon=mxgraph.aws4.aurora;" vertex="1" parent="1">
          <mxGeometry x="66" y="1951" width="20" height="20" as="geometry" />
        </mxCell>
        <mxCell id="lOgc0Rc7WmqNJs67cUO1-130" value="Replica" style="sketch=0;outlineConnect=0;gradientColor=#7ea6e0;fillColor=#dae8fc;strokeColor=#6c8ebf;dashed=0;verticalLabelPosition=bottom;verticalAlign=top;align=left;html=1;fontSize=12;fontStyle=0;aspect=fixed;pointerEvents=1;shape=mxgraph.aws4.aurora_instance;" vertex="1" parent="1">
          <mxGeometry x="185" y="1962.5" width="19" height="19" as="geometry" />
        </mxCell>
        <mxCell id="lOgc0Rc7WmqNJs67cUO1-131" value="VPC Oregon (Secondary)" style="points=[[0,0],[0.25,0],[0.5,0],[0.75,0],[1,0],[1,0.25],[1,0.5],[1,0.75],[1,1],[0.75,1],[0.5,1],[0.25,1],[0,1],[0,0.75],[0,0.5],[0,0.25]];outlineConnect=0;gradientColor=none;html=1;whiteSpace=wrap;fontSize=12;fontStyle=0;container=1;pointerEvents=0;collapsible=0;recursiveResize=0;shape=mxgraph.aws4.group;grIcon=mxgraph.aws4.group_vpc;strokeColor=#248814;fillColor=none;verticalAlign=top;align=left;spacingLeft=30;fontColor=#AAB7B8;dashed=0;" vertex="1" parent="1">
          <mxGeometry x="458" y="1836" width="310" height="400" as="geometry" />
        </mxCell>
        <mxCell id="lOgc0Rc7WmqNJs67cUO1-132" value="AZ1" style="sketch=0;outlineConnect=0;gradientColor=none;html=1;whiteSpace=wrap;fontSize=12;fontStyle=0;shape=mxgraph.aws4.group;grIcon=mxgraph.aws4.group_availability_zone;strokeColor=#545B64;fillColor=none;verticalAlign=top;align=left;spacingLeft=30;fontColor=#545B64;dashed=1;" vertex="1" parent="lOgc0Rc7WmqNJs67cUO1-131">
          <mxGeometry x="10" y="40" width="90" height="240" as="geometry" />
        </mxCell>
        <mxCell id="lOgc0Rc7WmqNJs67cUO1-133" value="Private subnet-a" style="points=[[0,0],[0.25,0],[0.5,0],[0.75,0],[1,0],[1,0.25],[1,0.5],[1,0.75],[1,1],[0.75,1],[0.5,1],[0.25,1],[0,1],[0,0.75],[0,0.5],[0,0.25]];outlineConnect=0;gradientColor=none;html=1;whiteSpace=wrap;fontSize=12;fontStyle=0;container=1;pointerEvents=0;collapsible=0;recursiveResize=0;shape=mxgraph.aws4.group;grIcon=mxgraph.aws4.group_security_group;grStroke=0;strokeColor=#147EBA;fillColor=#E6F2F8;verticalAlign=top;align=left;spacingLeft=30;fontColor=#147EBA;dashed=0;" vertex="1" parent="lOgc0Rc7WmqNJs67cUO1-131">
          <mxGeometry x="15" y="80" width="80" height="90" as="geometry" />
        </mxCell>
        <mxCell id="lOgc0Rc7WmqNJs67cUO1-134" value="EKS Ingress &lt;br&gt;Controller ALB" style="outlineConnect=0;dashed=0;verticalLabelPosition=bottom;verticalAlign=top;align=left;html=1;shape=mxgraph.aws3.application_load_balancer;fillColor=#dae8fc;strokeColor=#6c8ebf;" vertex="1" parent="lOgc0Rc7WmqNJs67cUO1-131">
          <mxGeometry x="15" y="320" width="43" height="38" as="geometry" />
        </mxCell>
        <mxCell id="lOgc0Rc7WmqNJs67cUO1-135" value="k8s Service" style="sketch=0;html=1;dashed=0;whitespace=wrap;fillColor=#dae8fc;strokeColor=#6c8ebf;points=[[0.005,0.63,0],[0.1,0.2,0],[0.9,0.2,0],[0.5,0,0],[0.995,0.63,0],[0.72,0.99,0],[0.5,1,0],[0.28,0.99,0]];verticalLabelPosition=bottom;align=center;verticalAlign=top;shape=mxgraph.kubernetes.icon;prIcon=svc" vertex="1" parent="lOgc0Rc7WmqNJs67cUO1-131">
          <mxGeometry x="156" y="322" width="40" height="37" as="geometry" />
        </mxCell>
        <mxCell id="lOgc0Rc7WmqNJs67cUO1-136" value="" style="endArrow=classic;html=1;rounded=0;exitX=1;exitY=0.5;exitDx=0;exitDy=0;exitPerimeter=0;fillColor=#dae8fc;strokeColor=#009900;" edge="1" parent="lOgc0Rc7WmqNJs67cUO1-131" source="lOgc0Rc7WmqNJs67cUO1-134">
          <mxGeometry width="50" height="50" relative="1" as="geometry">
            <mxPoint x="220" y="430" as="sourcePoint" />
            <mxPoint x="160" y="339" as="targetPoint" />
          </mxGeometry>
        </mxCell>
        <mxCell id="lOgc0Rc7WmqNJs67cUO1-137" value="AZ2" style="sketch=0;outlineConnect=0;gradientColor=none;html=1;whiteSpace=wrap;fontSize=12;fontStyle=0;shape=mxgraph.aws4.group;grIcon=mxgraph.aws4.group_availability_zone;strokeColor=#545B64;fillColor=none;verticalAlign=top;align=left;spacingLeft=30;fontColor=#545B64;dashed=1;" vertex="1" parent="1">
          <mxGeometry x="567" y="1876" width="90" height="240" as="geometry" />
        </mxCell>
        <mxCell id="lOgc0Rc7WmqNJs67cUO1-138" value="Private subnet-b" style="points=[[0,0],[0.25,0],[0.5,0],[0.75,0],[1,0],[1,0.25],[1,0.5],[1,0.75],[1,1],[0.75,1],[0.5,1],[0.25,1],[0,1],[0,0.75],[0,0.5],[0,0.25]];outlineConnect=0;gradientColor=none;html=1;whiteSpace=wrap;fontSize=12;fontStyle=0;container=1;pointerEvents=0;collapsible=0;recursiveResize=0;shape=mxgraph.aws4.group;grIcon=mxgraph.aws4.group_security_group;grStroke=0;strokeColor=#147EBA;fillColor=#E6F2F8;verticalAlign=top;align=left;spacingLeft=30;fontColor=#147EBA;dashed=0;" vertex="1" parent="1">
          <mxGeometry x="572" y="1916" width="80" height="90" as="geometry" />
        </mxCell>
        <mxCell id="lOgc0Rc7WmqNJs67cUO1-139" value="AZn" style="sketch=0;outlineConnect=0;gradientColor=none;html=1;whiteSpace=wrap;fontSize=12;fontStyle=0;shape=mxgraph.aws4.group;grIcon=mxgraph.aws4.group_availability_zone;strokeColor=#545B64;fillColor=none;verticalAlign=top;align=left;spacingLeft=30;fontColor=#545B64;dashed=1;" vertex="1" parent="1">
          <mxGeometry x="665" y="1876" width="90" height="240" as="geometry" />
        </mxCell>
        <mxCell id="lOgc0Rc7WmqNJs67cUO1-140" value="Private subnet-c" style="points=[[0,0],[0.25,0],[0.5,0],[0.75,0],[1,0],[1,0.25],[1,0.5],[1,0.75],[1,1],[0.75,1],[0.5,1],[0.25,1],[0,1],[0,0.75],[0,0.5],[0,0.25]];outlineConnect=0;gradientColor=none;html=1;whiteSpace=wrap;fontSize=12;fontStyle=0;container=1;pointerEvents=0;collapsible=0;recursiveResize=0;shape=mxgraph.aws4.group;grIcon=mxgraph.aws4.group_security_group;grStroke=0;strokeColor=#147EBA;fillColor=#E6F2F8;verticalAlign=top;align=left;spacingLeft=30;fontColor=#147EBA;dashed=0;" vertex="1" parent="1">
          <mxGeometry x="670" y="1916" width="80" height="90" as="geometry" />
        </mxCell>
        <mxCell id="lOgc0Rc7WmqNJs67cUO1-141" value="RDS Secondary Cluster" style="rounded=0;whiteSpace=wrap;html=1;fillColor=none;align=right;verticalAlign=top;" vertex="1" parent="1">
          <mxGeometry x="476" y="1951" width="270" height="51" as="geometry" />
        </mxCell>
        <mxCell id="lOgc0Rc7WmqNJs67cUO1-142" value="&lt;font color=&quot;#009900&quot;&gt;Primary&lt;/font&gt;" style="sketch=0;outlineConnect=0;gradientColor=#7ea6e0;fillColor=#dae8fc;strokeColor=#6c8ebf;dashed=0;verticalLabelPosition=bottom;verticalAlign=top;align=left;html=1;fontSize=12;fontStyle=0;aspect=fixed;pointerEvents=1;shape=mxgraph.aws4.aurora_instance;" vertex="1" parent="1">
          <mxGeometry x="505" y="1960.5" width="19" height="19" as="geometry" />
        </mxCell>
        <mxCell id="lOgc0Rc7WmqNJs67cUO1-143" value="" style="sketch=0;points=[[0,0,0],[0.25,0,0],[0.5,0,0],[0.75,0,0],[1,0,0],[0,1,0],[0.25,1,0],[0.5,1,0],[0.75,1,0],[1,1,0],[0,0.25,0],[0,0.5,0],[0,0.75,0],[1,0.25,0],[1,0.5,0],[1,0.75,0]];outlineConnect=0;gradientColor=#7ea6e0;gradientDirection=north;fillColor=#dae8fc;strokeColor=#6c8ebf;dashed=0;verticalLabelPosition=bottom;verticalAlign=top;align=left;html=1;fontSize=12;fontStyle=0;aspect=fixed;shape=mxgraph.aws4.resourceIcon;resIcon=mxgraph.aws4.aurora;" vertex="1" parent="1">
          <mxGeometry x="476" y="1951" width="20" height="20" as="geometry" />
        </mxCell>
        <mxCell id="lOgc0Rc7WmqNJs67cUO1-144" value="replication" style="endArrow=classic;html=1;rounded=0;exitX=0;exitY=0.5;exitDx=0;exitDy=0;entryX=1;entryY=0.5;entryDx=0;entryDy=0;fillColor=#dae8fc;gradientColor=#7ea6e0;strokeColor=#009900;" edge="1" parent="1" source="lOgc0Rc7WmqNJs67cUO1-141" target="lOgc0Rc7WmqNJs67cUO1-127">
          <mxGeometry x="0.04" y="21" width="50" height="50" relative="1" as="geometry">
            <mxPoint x="578" y="2176" as="sourcePoint" />
            <mxPoint x="528" y="2226" as="targetPoint" />
            <mxPoint y="1" as="offset" />
          </mxGeometry>
        </mxCell>
        <mxCell id="lOgc0Rc7WmqNJs67cUO1-145" value="EKS Secondary Cluster" style="rounded=0;whiteSpace=wrap;html=1;fillColor=none;align=right;verticalAlign=top;" vertex="1" parent="1">
          <mxGeometry x="478" y="2046" width="270" height="60" as="geometry" />
        </mxCell>
        <mxCell id="lOgc0Rc7WmqNJs67cUO1-146" value="Global Cluster Aware Containers" style="sketch=0;html=1;dashed=0;whitespace=wrap;fillColor=#dae8fc;strokeColor=#6c8ebf;points=[[0.005,0.63,0],[0.1,0.2,0],[0.9,0.2,0],[0.5,0,0],[0.995,0.63,0],[0.72,0.99,0],[0.5,1,0],[0.28,0.99,0]];verticalLabelPosition=bottom;align=left;verticalAlign=top;shape=mxgraph.kubernetes.icon;prIcon=pod;gradientColor=#7ea6e0;opacity=20;" vertex="1" parent="1">
          <mxGeometry x="489" y="2053.5" width="30" height="30" as="geometry" />
        </mxCell>
        <mxCell id="lOgc0Rc7WmqNJs67cUO1-147" value="" style="endArrow=none;dashed=1;html=1;dashPattern=1 3;strokeWidth=2;rounded=0;exitX=0.995;exitY=0.63;exitDx=0;exitDy=0;exitPerimeter=0;fillColor=#dae8fc;gradientColor=#7ea6e0;strokeColor=#6c8ebf;" edge="1" parent="1">
          <mxGeometry width="50" height="50" relative="1" as="geometry">
            <mxPoint x="521.8499999999999" y="2084" as="sourcePoint" />
            <mxPoint x="719" y="2084" as="targetPoint" />
          </mxGeometry>
        </mxCell>
        <mxCell id="lOgc0Rc7WmqNJs67cUO1-148" value="read/write" style="endArrow=classic;html=1;rounded=0;exitX=0.5;exitY=0;exitDx=0;exitDy=0;exitPerimeter=0;entryX=0.107;entryY=1.059;entryDx=0;entryDy=0;entryPerimeter=0;fillColor=#dae8fc;gradientColor=#7ea6e0;strokeColor=#6c8ebf;" edge="1" parent="1" source="lOgc0Rc7WmqNJs67cUO1-165">
          <mxGeometry width="50" height="50" relative="1" as="geometry">
            <mxPoint x="504" y="2052.5" as="sourcePoint" />
            <mxPoint x="504.8900000000001" y="2004.009" as="targetPoint" />
          </mxGeometry>
        </mxCell>
        <mxCell id="lOgc0Rc7WmqNJs67cUO1-149" value="Global Accelerator" style="sketch=0;points=[[0,0,0],[0.25,0,0],[0.5,0,0],[0.75,0,0],[1,0,0],[0,1,0],[0.25,1,0],[0.5,1,0],[0.75,1,0],[1,1,0],[0,0.25,0],[0,0.5,0],[0,0.75,0],[1,0.25,0],[1,0.5,0],[1,0.75,0]];outlineConnect=0;gradientDirection=north;fillColor=#dae8fc;strokeColor=#6c8ebf;dashed=0;verticalLabelPosition=bottom;verticalAlign=top;align=left;html=1;fontSize=12;fontStyle=0;aspect=fixed;shape=mxgraph.aws4.resourceIcon;resIcon=mxgraph.aws4.global_accelerator;" vertex="1" parent="1">
          <mxGeometry x="368.75" y="2276" width="78" height="78" as="geometry" />
        </mxCell>
        <mxCell id="lOgc0Rc7WmqNJs67cUO1-150" value="" style="endArrow=classic;html=1;rounded=0;" edge="1" parent="1">
          <mxGeometry width="50" height="50" relative="1" as="geometry">
            <mxPoint x="408.75" y="2476" as="sourcePoint" />
            <mxPoint x="408.75" y="2386" as="targetPoint" />
          </mxGeometry>
        </mxCell>
        <mxCell id="lOgc0Rc7WmqNJs67cUO1-151" value="External Systems" style="outlineConnect=0;dashed=0;verticalLabelPosition=bottom;verticalAlign=top;align=left;html=1;shape=mxgraph.aws3.internet_2;fillColor=#D2D3D3;gradientColor=none;" vertex="1" parent="1">
          <mxGeometry x="368" y="2436" width="79.5" height="54" as="geometry" />
        </mxCell>
        <mxCell id="lOgc0Rc7WmqNJs67cUO1-152" value="EKS Secondary Cluster" style="rounded=0;whiteSpace=wrap;html=1;fillColor=none;align=right;verticalAlign=top;" vertex="1" parent="1">
          <mxGeometry x="67" y="2046" width="270" height="60" as="geometry" />
        </mxCell>
        <mxCell id="lOgc0Rc7WmqNJs67cUO1-153" value="Global Cluster Aware Containers" style="sketch=0;html=1;whitespace=wrap;fillColor=#dae8fc;strokeColor=#6c8ebf;points=[[0.005,0.63,0],[0.1,0.2,0],[0.9,0.2,0],[0.5,0,0],[0.995,0.63,0],[0.72,0.99,0],[0.5,1,0],[0.28,0.99,0]];verticalLabelPosition=bottom;align=left;verticalAlign=top;shape=mxgraph.kubernetes.icon;prIcon=pod;gradientColor=#7ea6e0;opacity=20;" vertex="1" parent="1">
          <mxGeometry x="78" y="2053.5" width="30" height="30" as="geometry" />
        </mxCell>
        <mxCell id="lOgc0Rc7WmqNJs67cUO1-154" value="" style="endArrow=none;dashed=1;html=1;dashPattern=1 3;strokeWidth=2;rounded=0;exitX=0.995;exitY=0.63;exitDx=0;exitDy=0;exitPerimeter=0;fillColor=#dae8fc;gradientColor=#7ea6e0;strokeColor=#6c8ebf;" edge="1" parent="1">
          <mxGeometry width="50" height="50" relative="1" as="geometry">
            <mxPoint x="110.84999999999991" y="2084" as="sourcePoint" />
            <mxPoint x="308" y="2084" as="targetPoint" />
          </mxGeometry>
        </mxCell>
        <mxCell id="lOgc0Rc7WmqNJs67cUO1-159" value="" style="endArrow=classic;html=1;rounded=0;exitX=0.5;exitY=0;exitDx=0;exitDy=0;exitPerimeter=0;fillColor=#dae8fc;strokeColor=#009900;" edge="1" parent="1" source="lOgc0Rc7WmqNJs67cUO1-149" target="lOgc0Rc7WmqNJs67cUO1-134">
          <mxGeometry width="50" height="50" relative="1" as="geometry">
            <mxPoint x="678" y="2266" as="sourcePoint" />
            <mxPoint x="728" y="2216" as="targetPoint" />
          </mxGeometry>
        </mxCell>
        <mxCell id="lOgc0Rc7WmqNJs67cUO1-160" value="" style="endArrow=classic;html=1;rounded=0;exitX=0.5;exitY=0;exitDx=0;exitDy=0;exitPerimeter=0;fillColor=#dae8fc;strokeColor=#009900;" edge="1" parent="1" source="lOgc0Rc7WmqNJs67cUO1-149" target="lOgc0Rc7WmqNJs67cUO1-120">
          <mxGeometry width="50" height="50" relative="1" as="geometry">
            <mxPoint x="678" y="2266" as="sourcePoint" />
            <mxPoint x="728" y="2216" as="targetPoint" />
          </mxGeometry>
        </mxCell>
        <mxCell id="lOgc0Rc7WmqNJs67cUO1-161" value="" style="endArrow=classic;html=1;rounded=0;exitX=0.5;exitY=0;exitDx=0;exitDy=0;exitPerimeter=0;entryX=0.25;entryY=1;entryDx=0;entryDy=0;fillColor=#fff2cc;strokeColor=#009900;fontColor=#009900;" edge="1" parent="1" source="lOgc0Rc7WmqNJs67cUO1-135" target="lOgc0Rc7WmqNJs67cUO1-145">
          <mxGeometry width="50" height="50" relative="1" as="geometry">
            <mxPoint x="678" y="2256" as="sourcePoint" />
            <mxPoint x="728" y="2206" as="targetPoint" />
          </mxGeometry>
        </mxCell>
        <mxCell id="lOgc0Rc7WmqNJs67cUO1-162" value="lliveness probe reports health again on reboot" style="edgeLabel;html=1;align=left;verticalAlign=middle;resizable=0;points=[];fontColor=#009900;" vertex="1" connectable="0" parent="lOgc0Rc7WmqNJs67cUO1-161">
          <mxGeometry x="-0.1557" relative="1" as="geometry">
            <mxPoint x="46" y="-3" as="offset" />
          </mxGeometry>
        </mxCell>
        <mxCell id="lOgc0Rc7WmqNJs67cUO1-163" value="&lt;h1&gt;3. Runtime DB Cluster Failover in Completion Triggers Container Reboot as a Result of Consistent Liveness Probe Failures&lt;/h1&gt;" style="text;html=1;strokeColor=none;fillColor=none;spacing=5;spacingTop=-20;whiteSpace=wrap;overflow=hidden;rounded=0;" vertex="1" parent="1">
          <mxGeometry x="41" y="1740" width="829" height="60" as="geometry" />
        </mxCell>
        <mxCell id="lOgc0Rc7WmqNJs67cUO1-164" value="" style="sketch=0;html=1;whitespace=wrap;fillColor=#dae8fc;strokeColor=#6c8ebf;points=[[0.005,0.63,0],[0.1,0.2,0],[0.9,0.2,0],[0.5,0,0],[0.995,0.63,0],[0.72,0.99,0],[0.5,1,0],[0.28,0.99,0]];verticalLabelPosition=bottom;align=left;verticalAlign=top;shape=mxgraph.kubernetes.icon;prIcon=pod;gradientColor=#7ea6e0;" vertex="1" parent="1">
          <mxGeometry x="119" y="2052.5" width="30" height="30" as="geometry" />
        </mxCell>
        <mxCell id="lOgc0Rc7WmqNJs67cUO1-165" value="" style="sketch=0;html=1;dashed=0;whitespace=wrap;fillColor=#dae8fc;strokeColor=#6c8ebf;points=[[0.005,0.63,0],[0.1,0.2,0],[0.9,0.2,0],[0.5,0,0],[0.995,0.63,0],[0.72,0.99,0],[0.5,1,0],[0.28,0.99,0]];verticalLabelPosition=bottom;align=left;verticalAlign=top;shape=mxgraph.kubernetes.icon;prIcon=pod;gradientColor=#7ea6e0;" vertex="1" parent="1">
          <mxGeometry x="527" y="2053.5" width="30" height="30" as="geometry" />
        </mxCell>
        <mxCell id="lOgc0Rc7WmqNJs67cUO1-122" value="&lt;font color=&quot;#009900&quot;&gt;liveness probe reports healthy again on reboot&lt;/font&gt;" style="endArrow=classic;html=1;rounded=0;exitX=0.5;exitY=0;exitDx=0;exitDy=0;exitPerimeter=0;fillColor=#fff2cc;strokeColor=#009900;align=left;" edge="1" parent="1" source="lOgc0Rc7WmqNJs67cUO1-119">
          <mxGeometry x="0.1036" y="-29" width="50" height="50" relative="1" as="geometry">
            <mxPoint x="96" y="2137.5" as="sourcePoint" />
            <mxPoint x="130" y="2100" as="targetPoint" />
            <mxPoint x="-1" as="offset" />
          </mxGeometry>
        </mxCell>
        <mxCell id="lOgc0Rc7WmqNJs67cUO1-166" value="" style="endArrow=classic;html=1;rounded=0;exitX=0.5;exitY=0;exitDx=0;exitDy=0;exitPerimeter=0;entryX=0.113;entryY=1.116;entryDx=0;entryDy=0;entryPerimeter=0;strokeColor=#009900;" edge="1" parent="1" source="lOgc0Rc7WmqNJs67cUO1-164" target="lOgc0Rc7WmqNJs67cUO1-141">
          <mxGeometry width="50" height="50" relative="1" as="geometry">
            <mxPoint x="740" y="2220" as="sourcePoint" />
            <mxPoint x="790" y="2170" as="targetPoint" />
          </mxGeometry>
        </mxCell>
        <mxCell id="lOgc0Rc7WmqNJs67cUO1-167" value="write" style="edgeLabel;html=1;align=center;verticalAlign=middle;resizable=0;points=[];" vertex="1" connectable="0" parent="lOgc0Rc7WmqNJs67cUO1-166">
          <mxGeometry x="0.0604" relative="1" as="geometry">
            <mxPoint as="offset" />
          </mxGeometry>
        </mxCell>
        <mxCell id="lOgc0Rc7WmqNJs67cUO1-168" value="read" style="endArrow=classic;html=1;rounded=0;entryX=0.228;entryY=1.05;entryDx=0;entryDy=0;entryPerimeter=0;strokeColor=#009900;" edge="1" parent="1">
          <mxGeometry width="50" height="50" relative="1" as="geometry">
            <mxPoint x="135" y="2054" as="sourcePoint" />
            <mxPoint x="122.55999999999995" y="1998.5500000000002" as="targetPoint" />
          </mxGeometry>
        </mxCell>
      </root>
    </mxGraphModel>
  </diagram>
</mxfile>
